<svg width="83" height="32" viewBox="0 0 83 32" fill="none" xmlns="http://www.w3.org/2000/svg">
<path d="M14.2013 5.85704H6.40019V12.9259H12.9347C13.8863 12.9259 14.3622 13.4106 14.3622 14.38V17.3489C14.3622 18.3184 13.8863 18.8031 12.9347 18.8031H6.40019V30.2748C6.40019 31.2443 5.91764 31.729 4.95255 31.729H1.99695C1.03186 31.729 0.549316 31.2443 0.549316 30.2748V5.59448C0.549316 4.05953 1.09218 2.74675 2.17791 1.65613C3.26364 0.552043 4.57723 0 6.1187 0H14.2013C15.1664 0 15.649 0.48472 15.649 1.45416V4.42307C15.649 5.37905 15.1664 5.85704 14.2013 5.85704Z" fill="white"/>
<path d="M32.2566 31.729H24.0332C22.5052 31.729 21.1983 31.1837 20.1125 30.0931C19.0268 29.0024 18.4839 27.6896 18.4839 26.1547V1.45416C18.4839 0.48472 18.9665 0 19.9316 0H32.136C33.1011 0 33.5836 0.48472 33.5836 1.45416V4.42307C33.5836 5.37905 33.1011 5.85704 32.136 5.85704H24.3147V12.9259H30.8492C31.8143 12.9259 32.2968 13.4106 32.2968 14.38V17.3489C32.2968 18.3184 31.8143 18.8031 30.8492 18.8031H24.3147V25.8719H32.2566C33.2217 25.8719 33.7042 26.3567 33.7042 27.3261V30.2748C33.7042 31.2443 33.2217 31.729 32.2566 31.729Z" fill="white"/>
<path d="M60.2443 5.85704H52.4431V12.9259H58.9776C59.9293 12.9259 60.4051 13.4106 60.4051 14.38V17.3489C60.4051 18.3184 59.9293 18.8031 58.9776 18.8031H52.4431V30.2748C52.4431 31.2443 51.9606 31.729 50.9955 31.729H48.0399C47.0748 31.729 46.5922 31.2443 46.5922 30.2748V5.59448C46.5922 4.05953 47.1351 2.74675 48.2208 1.65613C49.3066 0.552043 50.6202 0 52.1616 0H60.2443C61.2094 0 61.6919 0.48472 61.6919 1.45416V4.42307C61.6919 5.37905 61.2094 5.85704 60.2443 5.85704Z" fill="white"/>
<path d="M80.2096 30.3556C79.1775 31.2712 77.9644 31.729 76.5704 31.729H70.3576C68.8162 31.729 67.4557 31.15 66.2761 29.9921C65.1099 28.8207 64.5269 27.454 64.5269 25.8921V5.83684C64.5269 4.28843 65.1166 2.92852 66.2962 1.75711C67.4758 0.585704 68.8363 0 70.3777 0H76.5503C78.0918 0 79.459 0.592436 80.6519 1.77731C81.8583 2.96218 82.4615 4.32882 82.4615 5.87723V6.80628C82.4615 7.76226 81.9789 8.24024 81.0138 8.24024H78.0583C77.1066 8.24024 76.6307 7.76226 76.6307 6.80628V5.85704H70.3576V25.8719H76.6307V24.7611C76.6307 23.7917 77.1066 23.307 78.0583 23.307H81.0138C81.9789 23.307 82.4615 23.7917 82.4615 24.7611V25.8719C82.4615 27.5685 81.7109 29.063 80.2096 30.3556Z" fill="white"/>
</svg>
