<svg width="22" height="22" viewBox="0 0 22 22" fill="none" xmlns="http://www.w3.org/2000/svg">
<path fill-rule="evenodd" clip-rule="evenodd" d="M11 0.916504C11.1989 0.916504 11.3897 0.995521 11.5303 1.13617L20.8637 10.4695C21.1566 10.7624 21.1566 11.2373 20.8637 11.5302C20.5708 11.8231 20.0959 11.8231 19.803 11.5302L11.75 3.47716V20.3332C11.75 20.7474 11.4142 21.0832 11 21.0832C10.5858 21.0832 10.25 20.7474 10.25 20.3332V3.47717L2.19702 11.5302C1.90412 11.8231 1.42925 11.8231 1.13636 11.5302C0.843464 11.2373 0.843463 10.7624 1.13636 10.4695L10.4697 1.13617C10.6103 0.995522 10.8011 0.916504 11 0.916504Z" fill="white"/>
</svg>
